<mxfile host="Electron" agent="Mozilla/5.0 (Windows NT 10.0; Win64; x64) AppleWebKit/537.36 (KHTML, like Gecko) draw.io/26.0.4 Chrome/128.0.6613.186 Electron/32.2.5 Safari/537.36" version="26.0.4">
  <diagram name="array" id="GPRWNofgy8FLtJxIam--">
    <mxGraphModel dx="715" dy="518" grid="1" gridSize="10" guides="1" tooltips="1" connect="1" arrows="1" fold="1" page="1" pageScale="1" pageWidth="827" pageHeight="1169" math="0" shadow="0">
      <root>
        <mxCell id="FcQ-IKqGeZoEcgifagWt-0" />
        <mxCell id="FcQ-IKqGeZoEcgifagWt-1" parent="FcQ-IKqGeZoEcgifagWt-0" />
        <mxCell id="FcQ-IKqGeZoEcgifagWt-4" value="1" style="rounded=1;whiteSpace=wrap;html=1;absoluteArcSize=1;arcSize=30;strokeWidth=2;fontFamily=consolas;fontSize=20;strokeColor=#99CCFF;fontColor=#FFFFFF;fillColor=#0099CC;" parent="FcQ-IKqGeZoEcgifagWt-1" vertex="1">
          <mxGeometry x="160" y="480" width="40" height="40" as="geometry" />
        </mxCell>
        <mxCell id="wwfph0xkiCYHfbDb8GMz-0" value="0" style="rounded=1;whiteSpace=wrap;html=1;absoluteArcSize=1;arcSize=14;strokeWidth=2;fontFamily=consolas;fontSize=20;strokeColor=none;fontColor=#FF748C;fillColor=none;" parent="FcQ-IKqGeZoEcgifagWt-1" vertex="1">
          <mxGeometry x="165.81" y="452.5" width="28.38" height="27.5" as="geometry" />
        </mxCell>
        <mxCell id="wwfph0xkiCYHfbDb8GMz-1" value="7" style="rounded=1;whiteSpace=wrap;html=1;absoluteArcSize=1;arcSize=30;strokeWidth=2;fontFamily=consolas;fontSize=20;strokeColor=#99CCFF;fontColor=#FFFFFF;fillColor=#0099CC;aspect=fixed;" parent="FcQ-IKqGeZoEcgifagWt-1" vertex="1">
          <mxGeometry x="200.67000000000002" y="480" width="40" height="40" as="geometry" />
        </mxCell>
        <mxCell id="wwfph0xkiCYHfbDb8GMz-2" value="4" style="rounded=1;whiteSpace=wrap;html=1;absoluteArcSize=1;arcSize=30;strokeWidth=2;fontFamily=consolas;fontSize=20;strokeColor=#99CCFF;fontColor=#FFFFFF;fillColor=#0099CC;aspect=fixed;" parent="FcQ-IKqGeZoEcgifagWt-1" vertex="1">
          <mxGeometry x="240.67000000000002" y="480" width="40" height="40" as="geometry" />
        </mxCell>
        <mxCell id="wwfph0xkiCYHfbDb8GMz-3" value="0" style="rounded=1;whiteSpace=wrap;html=1;absoluteArcSize=1;arcSize=30;strokeWidth=2;fontFamily=consolas;fontSize=20;strokeColor=#99CCFF;fontColor=#FFFFFF;fillColor=#0099CC;aspect=fixed;" parent="FcQ-IKqGeZoEcgifagWt-1" vertex="1">
          <mxGeometry x="280.67" y="480" width="40" height="40" as="geometry" />
        </mxCell>
        <mxCell id="wwfph0xkiCYHfbDb8GMz-4" value="9" style="rounded=1;whiteSpace=wrap;html=1;absoluteArcSize=1;arcSize=30;strokeWidth=2;fontFamily=consolas;fontSize=20;strokeColor=#99CCFF;fontColor=#FFFFFF;fillColor=#0099CC;aspect=fixed;" parent="FcQ-IKqGeZoEcgifagWt-1" vertex="1">
          <mxGeometry x="320.67" y="480" width="40" height="40" as="geometry" />
        </mxCell>
        <mxCell id="wwfph0xkiCYHfbDb8GMz-5" value="4" style="rounded=1;whiteSpace=wrap;html=1;absoluteArcSize=1;arcSize=30;strokeWidth=2;fontFamily=consolas;fontSize=20;strokeColor=#99CCFF;fontColor=#FFFFFF;fillColor=#0099CC;aspect=fixed;" parent="FcQ-IKqGeZoEcgifagWt-1" vertex="1">
          <mxGeometry x="360.67" y="480" width="40" height="40" as="geometry" />
        </mxCell>
        <mxCell id="wwfph0xkiCYHfbDb8GMz-6" value="8" style="rounded=1;whiteSpace=wrap;html=1;absoluteArcSize=1;arcSize=30;strokeWidth=2;fontFamily=consolas;fontSize=20;strokeColor=#99CCFF;fontColor=#FFFFFF;fillColor=#0099CC;aspect=fixed;" parent="FcQ-IKqGeZoEcgifagWt-1" vertex="1">
          <mxGeometry x="400.67" y="480" width="40" height="40" as="geometry" />
        </mxCell>
        <mxCell id="wwfph0xkiCYHfbDb8GMz-8" value="1" style="rounded=1;whiteSpace=wrap;html=1;absoluteArcSize=1;arcSize=14;strokeWidth=2;fontFamily=consolas;fontSize=20;strokeColor=none;fontColor=#FF748C;fillColor=none;" parent="FcQ-IKqGeZoEcgifagWt-1" vertex="1">
          <mxGeometry x="206.48000000000002" y="452.5" width="28.38" height="27.5" as="geometry" />
        </mxCell>
        <mxCell id="wwfph0xkiCYHfbDb8GMz-9" value="2" style="rounded=1;whiteSpace=wrap;html=1;absoluteArcSize=1;arcSize=14;strokeWidth=2;fontFamily=consolas;fontSize=20;strokeColor=none;fontColor=#FF748C;fillColor=none;" parent="FcQ-IKqGeZoEcgifagWt-1" vertex="1">
          <mxGeometry x="246.48000000000002" y="452.5" width="28.38" height="27.5" as="geometry" />
        </mxCell>
        <mxCell id="wwfph0xkiCYHfbDb8GMz-10" value="3" style="rounded=1;whiteSpace=wrap;html=1;absoluteArcSize=1;arcSize=14;strokeWidth=2;fontFamily=consolas;fontSize=20;strokeColor=none;fontColor=#FF748C;fillColor=none;" parent="FcQ-IKqGeZoEcgifagWt-1" vertex="1">
          <mxGeometry x="286.48" y="452.5" width="28.38" height="27.5" as="geometry" />
        </mxCell>
        <mxCell id="wwfph0xkiCYHfbDb8GMz-11" value="4" style="rounded=1;whiteSpace=wrap;html=1;absoluteArcSize=1;arcSize=14;strokeWidth=2;fontFamily=consolas;fontSize=20;strokeColor=none;fontColor=#FF748C;fillColor=none;" parent="FcQ-IKqGeZoEcgifagWt-1" vertex="1">
          <mxGeometry x="326.48" y="452.5" width="28.38" height="27.5" as="geometry" />
        </mxCell>
        <mxCell id="wwfph0xkiCYHfbDb8GMz-12" value="5" style="rounded=1;whiteSpace=wrap;html=1;absoluteArcSize=1;arcSize=14;strokeWidth=2;fontFamily=consolas;fontSize=20;strokeColor=none;fontColor=#FF748C;fillColor=none;" parent="FcQ-IKqGeZoEcgifagWt-1" vertex="1">
          <mxGeometry x="366.48" y="452.5" width="28.38" height="27.5" as="geometry" />
        </mxCell>
        <mxCell id="wwfph0xkiCYHfbDb8GMz-13" value="6" style="rounded=1;whiteSpace=wrap;html=1;absoluteArcSize=1;arcSize=14;strokeWidth=2;fontFamily=consolas;fontSize=20;strokeColor=none;fontColor=#FF748C;fillColor=none;" parent="FcQ-IKqGeZoEcgifagWt-1" vertex="1">
          <mxGeometry x="406.48" y="452.5" width="28.38" height="27.5" as="geometry" />
        </mxCell>
        <mxCell id="3dBk1JcrU5KW92U68bGq-0" value="8" style="rounded=1;whiteSpace=wrap;html=1;absoluteArcSize=1;arcSize=30;strokeWidth=2;fontFamily=consolas;fontSize=20;strokeColor=#99CCFF;fontColor=#FFFFFF;fillColor=#0099CC;aspect=fixed;" parent="FcQ-IKqGeZoEcgifagWt-1" vertex="1">
          <mxGeometry x="440.67" y="480" width="40" height="40" as="geometry" />
        </mxCell>
        <mxCell id="3dBk1JcrU5KW92U68bGq-1" value="7" style="rounded=1;whiteSpace=wrap;html=1;absoluteArcSize=1;arcSize=14;strokeWidth=2;fontFamily=consolas;fontSize=20;strokeColor=none;fontColor=#FF748C;fillColor=none;" parent="FcQ-IKqGeZoEcgifagWt-1" vertex="1">
          <mxGeometry x="446.48" y="452.5" width="28.38" height="27.5" as="geometry" />
        </mxCell>
        <mxCell id="QitkDA0d6plh5lsyKBYH-0" value="2" style="rounded=1;whiteSpace=wrap;html=1;absoluteArcSize=1;arcSize=30;strokeWidth=2;fontFamily=consolas;fontSize=20;strokeColor=#99CCFF;fontColor=#FFFFFF;fillColor=#0099CC;aspect=fixed;" parent="FcQ-IKqGeZoEcgifagWt-1" vertex="1">
          <mxGeometry x="480.67" y="480" width="40" height="40" as="geometry" />
        </mxCell>
        <mxCell id="QitkDA0d6plh5lsyKBYH-1" value="4" style="rounded=1;whiteSpace=wrap;html=1;absoluteArcSize=1;arcSize=30;strokeWidth=2;fontFamily=consolas;fontSize=20;strokeColor=#99CCFF;fontColor=#FFFFFF;fillColor=#0099CC;aspect=fixed;" parent="FcQ-IKqGeZoEcgifagWt-1" vertex="1">
          <mxGeometry x="520.67" y="480" width="40" height="40" as="geometry" />
        </mxCell>
        <mxCell id="QitkDA0d6plh5lsyKBYH-2" value="5" style="rounded=1;whiteSpace=wrap;html=1;absoluteArcSize=1;arcSize=30;strokeWidth=2;fontFamily=consolas;fontSize=20;strokeColor=#99CCFF;fontColor=#FFFFFF;fillColor=#0099CC;aspect=fixed;" parent="FcQ-IKqGeZoEcgifagWt-1" vertex="1">
          <mxGeometry x="560.6700000000001" y="480" width="40" height="40" as="geometry" />
        </mxCell>
        <mxCell id="QitkDA0d6plh5lsyKBYH-3" value="5" style="rounded=1;whiteSpace=wrap;html=1;absoluteArcSize=1;arcSize=30;strokeWidth=2;fontFamily=consolas;fontSize=20;strokeColor=#99CCFF;fontColor=#FFFFFF;fillColor=#0099CC;aspect=fixed;" parent="FcQ-IKqGeZoEcgifagWt-1" vertex="1">
          <mxGeometry x="600.6700000000001" y="480" width="40" height="40" as="geometry" />
        </mxCell>
        <mxCell id="QitkDA0d6plh5lsyKBYH-4" value="8" style="rounded=1;whiteSpace=wrap;html=1;absoluteArcSize=1;arcSize=14;strokeWidth=2;fontFamily=consolas;fontSize=20;strokeColor=none;fontColor=#FF748C;fillColor=none;" parent="FcQ-IKqGeZoEcgifagWt-1" vertex="1">
          <mxGeometry x="486.47999999999996" y="452.5" width="28.38" height="27.5" as="geometry" />
        </mxCell>
        <mxCell id="QitkDA0d6plh5lsyKBYH-5" value="9" style="rounded=1;whiteSpace=wrap;html=1;absoluteArcSize=1;arcSize=14;strokeWidth=2;fontFamily=consolas;fontSize=20;strokeColor=none;fontColor=#FF748C;fillColor=none;" parent="FcQ-IKqGeZoEcgifagWt-1" vertex="1">
          <mxGeometry x="526.4799999999999" y="452.5" width="28.38" height="27.5" as="geometry" />
        </mxCell>
        <mxCell id="QitkDA0d6plh5lsyKBYH-6" value="10" style="rounded=1;whiteSpace=wrap;html=1;absoluteArcSize=1;arcSize=14;strokeWidth=2;fontFamily=consolas;fontSize=20;strokeColor=none;fontColor=#FF748C;fillColor=none;" parent="FcQ-IKqGeZoEcgifagWt-1" vertex="1">
          <mxGeometry x="566.48" y="452.5" width="28.38" height="27.5" as="geometry" />
        </mxCell>
        <mxCell id="QitkDA0d6plh5lsyKBYH-7" value="11" style="rounded=1;whiteSpace=wrap;html=1;absoluteArcSize=1;arcSize=14;strokeWidth=2;fontFamily=consolas;fontSize=20;strokeColor=none;fontColor=#FF748C;fillColor=none;" parent="FcQ-IKqGeZoEcgifagWt-1" vertex="1">
          <mxGeometry x="606.4799999999999" y="452.5" width="28.38" height="27.5" as="geometry" />
        </mxCell>
        <mxCell id="QitkDA0d6plh5lsyKBYH-8" value="Chỉ số" style="rounded=1;whiteSpace=wrap;html=1;absoluteArcSize=1;arcSize=14;strokeWidth=2;fontFamily=consolas;fontSize=20;strokeColor=none;fontColor=#FF748C;fillColor=none;align=left;" parent="FcQ-IKqGeZoEcgifagWt-1" vertex="1">
          <mxGeometry x="40" y="452.5" width="80" height="27.5" as="geometry" />
        </mxCell>
        <mxCell id="QitkDA0d6plh5lsyKBYH-9" value="Giá trị" style="rounded=1;whiteSpace=wrap;html=1;absoluteArcSize=1;arcSize=14;strokeWidth=2;fontFamily=consolas;fontSize=20;strokeColor=none;fontColor=#0099CC;fillColor=none;align=left;" parent="FcQ-IKqGeZoEcgifagWt-1" vertex="1">
          <mxGeometry x="40" y="486.25" width="80" height="27.5" as="geometry" />
        </mxCell>
        <mxCell id="QitkDA0d6plh5lsyKBYH-10" value="" style="endArrow=classic;html=1;rounded=0;fontColor=#FF748C;exitX=1;exitY=0.5;exitDx=0;exitDy=0;strokeWidth=2;endFill=0;strokeColor=#FF748C;" parent="FcQ-IKqGeZoEcgifagWt-1" source="QitkDA0d6plh5lsyKBYH-8" edge="1">
          <mxGeometry width="50" height="50" relative="1" as="geometry">
            <mxPoint x="320" y="360" as="sourcePoint" />
            <mxPoint x="150" y="466" as="targetPoint" />
          </mxGeometry>
        </mxCell>
        <mxCell id="QitkDA0d6plh5lsyKBYH-11" value="" style="endArrow=classic;html=1;rounded=0;fontColor=#0099CC;exitX=1;exitY=0.5;exitDx=0;exitDy=0;strokeWidth=2;endFill=0;strokeColor=#0099CC;" parent="FcQ-IKqGeZoEcgifagWt-1" source="QitkDA0d6plh5lsyKBYH-9" edge="1">
          <mxGeometry width="50" height="50" relative="1" as="geometry">
            <mxPoint x="110" y="476" as="sourcePoint" />
            <mxPoint x="150" y="500" as="targetPoint" />
          </mxGeometry>
        </mxCell>
        <mxCell id="WzyXAkvrVgMHklTbN03c-0" value="1" style="rounded=1;whiteSpace=wrap;html=1;absoluteArcSize=1;arcSize=30;strokeWidth=2;fontFamily=consolas;fontSize=20;strokeColor=#99CCFF;fontColor=#FFFFFF;fillColor=#0099CC;aspect=fixed;imageHeight=24;" parent="FcQ-IKqGeZoEcgifagWt-1" vertex="1">
          <mxGeometry x="229.05" y="722.5" width="40" height="40" as="geometry" />
        </mxCell>
        <mxCell id="WzyXAkvrVgMHklTbN03c-1" value="7" style="rounded=1;whiteSpace=wrap;html=1;absoluteArcSize=1;arcSize=30;strokeWidth=2;fontFamily=consolas;fontSize=20;strokeColor=#99CCFF;fontColor=#FFFFFF;fillColor=#0099CC;aspect=fixed;imageHeight=24;" parent="FcQ-IKqGeZoEcgifagWt-1" vertex="1">
          <mxGeometry x="269.05" y="722.5" width="40" height="40" as="geometry" />
        </mxCell>
        <mxCell id="WzyXAkvrVgMHklTbN03c-2" value="4" style="rounded=1;whiteSpace=wrap;html=1;absoluteArcSize=1;arcSize=30;strokeWidth=2;fontFamily=consolas;fontSize=20;strokeColor=#99CCFF;fontColor=#FFFFFF;fillColor=#0099CC;aspect=fixed;imageHeight=24;" parent="FcQ-IKqGeZoEcgifagWt-1" vertex="1">
          <mxGeometry x="309.05" y="722.5" width="40" height="40" as="geometry" />
        </mxCell>
        <mxCell id="WzyXAkvrVgMHklTbN03c-3" value="0" style="rounded=1;whiteSpace=wrap;html=1;absoluteArcSize=1;arcSize=30;strokeWidth=2;fontFamily=consolas;fontSize=20;strokeColor=#99CCFF;fontColor=#FFFFFF;fillColor=#0099CC;aspect=fixed;imageHeight=24;" parent="FcQ-IKqGeZoEcgifagWt-1" vertex="1">
          <mxGeometry x="349.05" y="722.5" width="40" height="40" as="geometry" />
        </mxCell>
        <mxCell id="WzyXAkvrVgMHklTbN03c-4" value="9" style="rounded=1;whiteSpace=wrap;html=1;absoluteArcSize=1;arcSize=30;strokeWidth=2;fontFamily=consolas;fontSize=20;strokeColor=#99CCFF;fontColor=#FFFFFF;fillColor=#0099CC;aspect=fixed;imageHeight=24;" parent="FcQ-IKqGeZoEcgifagWt-1" vertex="1">
          <mxGeometry x="229.05" y="762.5" width="40" height="40" as="geometry" />
        </mxCell>
        <mxCell id="WzyXAkvrVgMHklTbN03c-5" value="4" style="rounded=1;whiteSpace=wrap;html=1;absoluteArcSize=1;arcSize=30;strokeWidth=2;fontFamily=consolas;fontSize=20;strokeColor=#99CCFF;fontColor=#FFFFFF;fillColor=#0099CC;aspect=fixed;imageHeight=24;" parent="FcQ-IKqGeZoEcgifagWt-1" vertex="1">
          <mxGeometry x="269.05" y="762.5" width="40" height="40" as="geometry" />
        </mxCell>
        <mxCell id="WzyXAkvrVgMHklTbN03c-6" value="8" style="rounded=1;whiteSpace=wrap;html=1;absoluteArcSize=1;arcSize=30;strokeWidth=2;fontFamily=consolas;fontSize=20;strokeColor=#99CCFF;fontColor=#FFFFFF;fillColor=#0099CC;aspect=fixed;imageHeight=24;" parent="FcQ-IKqGeZoEcgifagWt-1" vertex="1">
          <mxGeometry x="309.05" y="762.5" width="40" height="40" as="geometry" />
        </mxCell>
        <mxCell id="WzyXAkvrVgMHklTbN03c-7" value="8" style="rounded=1;whiteSpace=wrap;html=1;absoluteArcSize=1;arcSize=30;strokeWidth=2;fontFamily=consolas;fontSize=20;strokeColor=#99CCFF;fontColor=#FFFFFF;fillColor=#0099CC;aspect=fixed;imageHeight=24;" parent="FcQ-IKqGeZoEcgifagWt-1" vertex="1">
          <mxGeometry x="349.05" y="762.5" width="40" height="40" as="geometry" />
        </mxCell>
        <mxCell id="WzyXAkvrVgMHklTbN03c-8" value="2" style="rounded=1;whiteSpace=wrap;html=1;absoluteArcSize=1;arcSize=30;strokeWidth=2;fontFamily=consolas;fontSize=20;strokeColor=#99CCFF;fontColor=#FFFFFF;fillColor=#0099CC;aspect=fixed;imageHeight=24;" parent="FcQ-IKqGeZoEcgifagWt-1" vertex="1">
          <mxGeometry x="229.05" y="802.5" width="40" height="40" as="geometry" />
        </mxCell>
        <mxCell id="WzyXAkvrVgMHklTbN03c-9" value="4" style="rounded=1;whiteSpace=wrap;html=1;absoluteArcSize=1;arcSize=30;strokeWidth=2;fontFamily=consolas;fontSize=20;strokeColor=#99CCFF;fontColor=#FFFFFF;fillColor=#0099CC;aspect=fixed;imageHeight=24;" parent="FcQ-IKqGeZoEcgifagWt-1" vertex="1">
          <mxGeometry x="269.05" y="802.5" width="40" height="40" as="geometry" />
        </mxCell>
        <mxCell id="WzyXAkvrVgMHklTbN03c-10" value="5" style="rounded=1;whiteSpace=wrap;html=1;absoluteArcSize=1;arcSize=30;strokeWidth=2;fontFamily=consolas;fontSize=20;strokeColor=#99CCFF;fontColor=#FFFFFF;fillColor=#0099CC;aspect=fixed;imageHeight=24;" parent="FcQ-IKqGeZoEcgifagWt-1" vertex="1">
          <mxGeometry x="309.05" y="802.5" width="40" height="40" as="geometry" />
        </mxCell>
        <mxCell id="WzyXAkvrVgMHklTbN03c-11" value="5" style="rounded=1;whiteSpace=wrap;html=1;absoluteArcSize=1;arcSize=30;strokeWidth=2;fontFamily=consolas;fontSize=20;strokeColor=#99CCFF;fontColor=#FFFFFF;fillColor=#0099CC;aspect=fixed;imageHeight=24;" parent="FcQ-IKqGeZoEcgifagWt-1" vertex="1">
          <mxGeometry x="349.05" y="802.5" width="40" height="40" as="geometry" />
        </mxCell>
        <mxCell id="WzyXAkvrVgMHklTbN03c-12" value="0" style="rounded=1;whiteSpace=wrap;html=1;absoluteArcSize=1;arcSize=14;strokeWidth=2;fontFamily=consolas;fontSize=20;strokeColor=none;fontColor=#FF748C;fillColor=none;" parent="FcQ-IKqGeZoEcgifagWt-1" vertex="1">
          <mxGeometry x="234.86" y="695" width="28.38" height="27.5" as="geometry" />
        </mxCell>
        <mxCell id="WzyXAkvrVgMHklTbN03c-13" value="1" style="rounded=1;whiteSpace=wrap;html=1;absoluteArcSize=1;arcSize=14;strokeWidth=2;fontFamily=consolas;fontSize=20;strokeColor=none;fontColor=#FF748C;fillColor=none;" parent="FcQ-IKqGeZoEcgifagWt-1" vertex="1">
          <mxGeometry x="274.86" y="695" width="28.38" height="27.5" as="geometry" />
        </mxCell>
        <mxCell id="WzyXAkvrVgMHklTbN03c-14" value="2" style="rounded=1;whiteSpace=wrap;html=1;absoluteArcSize=1;arcSize=14;strokeWidth=2;fontFamily=consolas;fontSize=20;strokeColor=none;fontColor=#FF748C;fillColor=none;" parent="FcQ-IKqGeZoEcgifagWt-1" vertex="1">
          <mxGeometry x="314.86" y="695" width="28.38" height="27.5" as="geometry" />
        </mxCell>
        <mxCell id="WzyXAkvrVgMHklTbN03c-15" value="3" style="rounded=1;whiteSpace=wrap;html=1;absoluteArcSize=1;arcSize=14;strokeWidth=2;fontFamily=consolas;fontSize=20;strokeColor=none;fontColor=#FF748C;fillColor=none;" parent="FcQ-IKqGeZoEcgifagWt-1" vertex="1">
          <mxGeometry x="354.86" y="695" width="28.38" height="27.5" as="geometry" />
        </mxCell>
        <mxCell id="WzyXAkvrVgMHklTbN03c-16" value="0" style="rounded=1;whiteSpace=wrap;html=1;absoluteArcSize=1;arcSize=14;strokeWidth=2;fontFamily=consolas;fontSize=20;strokeColor=none;fontColor=#FF748C;fillColor=none;" parent="FcQ-IKqGeZoEcgifagWt-1" vertex="1">
          <mxGeometry x="200.67000000000002" y="728.75" width="28.38" height="27.5" as="geometry" />
        </mxCell>
        <mxCell id="WzyXAkvrVgMHklTbN03c-17" value="1" style="rounded=1;whiteSpace=wrap;html=1;absoluteArcSize=1;arcSize=14;strokeWidth=2;fontFamily=consolas;fontSize=20;strokeColor=none;fontColor=#FF748C;fillColor=none;" parent="FcQ-IKqGeZoEcgifagWt-1" vertex="1">
          <mxGeometry x="200.67000000000002" y="768.75" width="28.38" height="27.5" as="geometry" />
        </mxCell>
        <mxCell id="WzyXAkvrVgMHklTbN03c-18" value="2" style="rounded=1;whiteSpace=wrap;html=1;absoluteArcSize=1;arcSize=14;strokeWidth=2;fontFamily=consolas;fontSize=20;strokeColor=none;fontColor=#FF748C;fillColor=none;" parent="FcQ-IKqGeZoEcgifagWt-1" vertex="1">
          <mxGeometry x="200.67000000000002" y="808.75" width="28.38" height="27.5" as="geometry" />
        </mxCell>
        <mxCell id="WzyXAkvrVgMHklTbN03c-19" value="" style="shape=curlyBracket;whiteSpace=wrap;html=1;rounded=1;fontSize=18;fontColor=#4D4D4D;strokeColor=#4D4D4D;strokeWidth=2;fontFamily=Segoe UI Variable Display;size=0.41899999999999976;" parent="FcQ-IKqGeZoEcgifagWt-1" vertex="1">
          <mxGeometry x="180.67" y="720" width="20" height="130" as="geometry" />
        </mxCell>
        <mxCell id="WzyXAkvrVgMHklTbN03c-20" value="3 hàng" style="rounded=1;whiteSpace=wrap;html=1;absoluteArcSize=1;arcSize=14;strokeWidth=2;fontFamily=Noto Sans;fontSize=20;strokeColor=none;fontColor=#4D4D4D;fillColor=none;fontSource=https%3A%2F%2Ffonts.googleapis.com%2Fcss%3Ffamily%3DNoto%2BSans;" parent="FcQ-IKqGeZoEcgifagWt-1" vertex="1">
          <mxGeometry x="100.67" y="768.75" width="80" height="27.5" as="geometry" />
        </mxCell>
        <mxCell id="WzyXAkvrVgMHklTbN03c-21" value="" style="shape=curlyBracket;whiteSpace=wrap;html=1;rounded=1;fontSize=18;fontColor=#4D4D4D;strokeColor=#4D4D4D;strokeWidth=2;rotation=90;fontFamily=Segoe UI Variable Display;" parent="FcQ-IKqGeZoEcgifagWt-1" vertex="1">
          <mxGeometry x="296.55" y="602.5" width="20" height="158.75" as="geometry" />
        </mxCell>
        <mxCell id="WzyXAkvrVgMHklTbN03c-22" value="4 cột" style="rounded=1;whiteSpace=wrap;html=1;absoluteArcSize=1;arcSize=14;strokeWidth=2;fontFamily=Noto Sans;fontSize=20;strokeColor=none;fontColor=#4D4D4D;fillColor=none;fontSource=https%3A%2F%2Ffonts.googleapis.com%2Fcss%3Ffamily%3DNoto%2BSans;" parent="FcQ-IKqGeZoEcgifagWt-1" vertex="1">
          <mxGeometry x="229.05" y="642.5" width="160.95" height="27.5" as="geometry" />
        </mxCell>
      </root>
    </mxGraphModel>
  </diagram>
</mxfile>
